<svg width="327" height="88" viewBox="0 0 327 88" fill="none" xmlns="http://www.w3.org/2000/svg">
<path d="M48.2666 26.604H32.7393L25.2319 70H12.6709L20.2148 26.604H4.94385L6.70166 16.6797H49.9878L48.2666 26.604ZM93.3252 70H80.874L84.7192 47.7344H66.4453L62.5635 70H50.0391L59.2676 16.6797H71.8286L68.1299 37.8467H86.4404L90.1025 16.6797H102.59L93.3252 70ZM141.35 47.4048H121.758L119.524 60.1123H142.705L140.984 70H105.278L114.507 16.6797H150.286L148.564 26.604H125.347L123.369 37.8467H142.998L141.35 47.4048ZM186.643 60.1123H208.359L206.638 70H172.397L181.626 16.6797H194.187L186.643 60.1123ZM248.035 60.0391H231.006L226.282 70H212.476L240.71 16.6797H252.502L262.354 70H249.316L248.035 60.0391ZM235.693 50.1147H246.753L244.409 31.731L235.693 50.1147ZM270.425 70L279.653 16.6797L296.609 16.7163C303.298 16.7407 308.291 18.0103 311.587 20.5249C314.883 23.0396 316.384 26.5674 316.091 31.1084C315.725 36.7236 312.649 40.7031 306.863 43.0469C308.938 43.7793 310.549 45.1099 311.697 47.0386C312.869 48.9429 313.369 51.2378 313.198 53.9233C312.856 59.0747 310.818 63.042 307.083 65.8252C303.372 68.6084 298.281 70 291.812 70H270.425ZM286.904 47.3315L284.67 60.1123L292.178 60.1489C294.521 60.1489 296.475 59.5752 298.037 58.4277C299.6 57.2559 300.527 55.7056 300.82 53.7769C301.504 49.6997 299.941 47.5635 296.133 47.3682L286.904 47.3315ZM288.333 38.9087L294.229 38.9453C299.673 38.8232 302.725 36.7358 303.384 32.6831C303.97 28.6792 301.895 26.665 297.158 26.6406L290.493 26.604L288.333 38.9087Z" fill="black"/>
</svg>
